<?xml version="1.0" encoding="UTF-8" standalone="no"?>
<!-- Created with Inkscape (http://www.inkscape.org/) -->

<svg
   width="101.50905mm"
   height="36.166122mm"
   viewBox="0 0 101.50905 36.166122"
   version="1.1"
   id="svg5"
   xml:space="preserve"
   inkscape:version="1.2.2 (b0a8486541, 2022-12-01)"
   sodipodi:docname="toth.svg"
   xmlns:inkscape="http://www.inkscape.org/namespaces/inkscape"
   xmlns:sodipodi="http://sodipodi.sourceforge.net/DTD/sodipodi-0.dtd"
   xmlns="http://www.w3.org/2000/svg"
   xmlns:svg="http://www.w3.org/2000/svg"><sodipodi:namedview
     id="namedview7"
     pagecolor="#ffffff"
     bordercolor="#000000"
     borderopacity="0.25"
     inkscape:showpageshadow="2"
     inkscape:pageopacity="0.0"
     inkscape:pagecheckerboard="0"
     inkscape:deskcolor="#d1d1d1"
     inkscape:document-units="mm"
     showgrid="false"
     inkscape:zoom="1.5714646"
     inkscape:cx="394.53641"
     inkscape:cy="724.80156"
     inkscape:window-width="1878"
     inkscape:window-height="1006"
     inkscape:window-x="20"
     inkscape:window-y="52"
     inkscape:window-maximized="1"
     inkscape:current-layer="g751" /><defs
     id="defs2" /><g
     inkscape:label="Layer 1"
     inkscape:groupmode="layer"
     id="layer1"
     transform="translate(-58.383836,-191.33587)"><g
       id="g300"
       transform="translate(6.8596544,38.29478)"><g
         id="g276"><circle
           style="fill:#fb4934;fill-rule:evenodd;stroke:none;stroke-width:0.2;stroke-linecap:round"
           id="circle272"
           cx="71.016449"
           cy="157.5056"
           r="1.4266198" /><path
           style="fill:#fbf1c7;stroke-width:0.115936"
           d="m 69.600048,188.79075 c -0.28694,-0.2256 -0.86082,-0.59498 -1.2753,-0.82085 -2.32527,-1.26717 -3.21788,-1.93498 -3.64282,-2.72541 l -0.20388,-0.37923 -1.00404,0.0352 c -0.76919,0.027 -1.4096,-0.0476 -2.73796,-0.31883 -1.11803,-0.22828 -2.07825,-0.35404 -2.70332,-0.35404 -0.93131,0 -0.96638,-0.01 -0.89232,-0.24289 0.17701,-0.55771 0.0596,-1.96623 -0.28667,-3.43871 -0.37119,-1.57849 -0.44828,-2.45335 -0.30512,-3.46255 0.0834,-0.58789 0.0802,-0.59624 -0.32349,-0.84574 -0.55454,-0.34272 -1.43513,-1.32639 -2.384331,-2.66342 -0.763628,-1.07563 -1.950793,-2.33155 -2.203919,-2.33155 -0.23274,0 -0.12118,-0.18733 0.486775,-0.81738 0.335308,-0.3475 1.050403,-1.28396 1.589102,-2.08102 0.922154,-1.36443 2.105533,-2.72178 2.602543,-2.98517 0.20451,-0.10837 0.21015,-0.15919 0.0723,-0.65145 -0.23423,-0.83658 -0.0977,-2.24968 0.34872,-3.6094 0.30975,-0.94342 0.3825,-1.35382 0.3906,-2.20342 l 0.01,-1.04405 1.39124,-0.009 c 0.9769,-0.007 1.7365,-0.0854 2.55058,-0.26485 1.53431,-0.33822 2.74977,-0.426 3.53906,-0.2556 0.56362,0.12168 0.64762,0.11502 0.75058,-0.0595 0.6369,-1.07976 1.37459,-1.69192 3.29699,-2.73592 0.72933,-0.39608 1.55148,-0.89221 1.82699,-1.10252 0.27552,-0.2103 0.52613,-0.38237 0.5569,-0.38237 0.0308,0 0.29528,0.18267 0.58777,0.40594 0.2925,0.22327 1.15534,0.72383 1.91743,1.11237 1.66956,0.85119 2.44151,1.43898 2.84947,2.16966 l 0.30592,0.54793 1.34341,0.008 c 1.00117,0.006 1.72737,0.0896 2.85058,0.32802 0.86356,0.18334 1.95275,0.33115 2.5506,0.34614 1.03786,0.026 1.04312,0.0276 0.98546,0.30751 -0.15891,0.77128 -0.0267,1.97511 0.3984,3.62835 0.46334,1.80188 0.50381,2.62313 0.1658,3.36499 -0.12883,0.28273 -0.094,0.34766 0.55086,1.02659 0.37861,0.39862 1.05213,1.31657 1.49672,2.0399 0.44458,0.72332 1.08423,1.62063 1.42143,1.99404 l 0.61309,0.67891 -0.51472,0.67249 c -0.28309,0.36987 -0.86801,1.35072 -1.29981,2.17967 -0.97584,1.87335 -1.52692,2.70035 -2.1372,3.20728 l -0.47493,0.39451 0.12651,0.56449 c 0.16133,0.71989 0.0801,1.31058 -0.40734,2.96379 -0.39092,1.32574 -0.6456,2.62937 -0.60022,3.07231 0.0215,0.21013 -0.0361,0.22878 -0.61389,0.19887 -0.6611,-0.0342 -1.78612,0.13124 -3.7567,0.55252 -0.90462,0.19339 -1.37184,0.23097 -2.20279,0.17718 -1.164,-0.0754 -1.18794,-0.0661 -1.74602,0.67376 -0.41155,0.54561 -0.86456,0.85964 -2.78672,1.93178 -0.82895,0.46236 -1.72464,1.01715 -1.99043,1.23286 -0.26579,0.21571 -0.50056,0.38951 -0.52171,0.38623 -0.0212,-0.003 -0.27323,-0.19054 -0.56017,-0.41615 z m 1.33541,-1.17865 c 0.2758,-0.24278 1.19161,-0.85579 2.03513,-1.36225 0.84353,-0.50647 1.82582,-1.19972 2.18287,-1.54056 l 0.64918,-0.61971 1.15937,-0.0281 c 0.65816,-0.016 1.85185,-0.16156 2.7612,-0.33677 0.88101,-0.16974 1.9823,-0.30862 2.4473,-0.30862 h 0.84547 l 0.0663,-0.95648 c 0.0365,-0.52606 0.22553,-1.55644 0.4201,-2.28974 0.24901,-0.93851 0.35434,-1.60261 0.35576,-2.24298 l 0.002,-0.90971 0.67186,-0.73323 c 0.45998,-0.50198 0.92594,-1.22055 1.47751,-2.27853 0.44311,-0.84992 1.04852,-1.86721 1.34537,-2.26065 l 0.53972,-0.71534 -0.29176,-0.27012 c -0.16047,-0.14856 -0.79156,-1.0232 -1.40243,-1.94364 -0.61087,-0.92045 -1.3654,-1.97962 -1.67674,-2.35374 -0.53022,-0.63712 -0.55814,-0.70295 -0.4409,-1.03929 0.21502,-0.6168 0.13872,-1.60981 -0.23897,-3.10986 -0.25563,-1.01525 -0.36793,-1.74398 -0.3768,-2.44514 l -0.0126,-0.99883 -1.04343,-0.0685 c -0.57389,-0.0376 -1.69557,-0.18015 -2.49263,-0.31667 -0.79707,-0.13652 -1.95535,-0.2562 -2.57398,-0.26596 l -1.12476,-0.0178 -0.0726,-0.42759 c -0.0925,-0.5453 -0.74646,-1.0588 -2.63793,-2.07146 -0.7513,-0.40223 -1.57035,-0.90625 -1.82012,-1.12004 -0.44105,-0.37752 -0.46515,-0.38385 -0.83679,-0.21974 -0.21047,0.0929 -0.71997,0.46047 -1.13224,0.81673 -0.41226,0.35625 -1.22092,0.88876 -1.79701,1.18334 -1.35563,0.69319 -1.75069,0.99574 -2.03952,1.56191 l -0.23636,0.46329 -0.54515,-0.0911 c -0.83336,-0.13932 -1.91519,-0.0708 -3.32383,0.21053 -0.80582,0.16094 -1.74021,0.25885 -2.52539,0.26465 l -1.24631,0.009 -8.8e-4,0.69562 c -4.3e-4,0.41204 -0.1476,1.23915 -0.36082,2.02888 -0.43915,1.62656 -0.55554,3.11671 -0.29257,3.74607 0.17689,0.42336 0.1755,0.42945 -0.13421,0.58965 -0.50868,0.26312 -1.54035,1.43058 -2.453982,2.77697 -0.46947,0.69185 -1.101897,1.5296 -1.405392,1.86167 l -0.551806,0.60376 0.538183,0.39909 c 0.367527,0.27254 0.870439,0.89366 1.586007,1.95882 0.72534,1.07967 1.20822,1.67446 1.56891,1.93251 1.00636,0.71995 1.17227,0.92062 1.04276,1.26126 -0.19798,0.52072 -0.12811,1.95255 0.1622,3.32378 0.38678,1.82694 0.437,2.27803 0.32192,2.89145 l -0.10027,0.53447 1.34424,0.0704 c 0.73934,0.0387 1.97031,0.17644 2.73549,0.30605 0.76518,0.1296 1.73843,0.23565 2.16279,0.23567 l 0.77155,3e-5 0.30151,0.51448 c 0.41744,0.71231 1.04863,1.19495 2.73487,2.0912 0.79706,0.42365 1.6318,0.92093 1.85497,1.10507 0.22319,0.18415 0.44995,0.33756 0.50393,0.34091 0.054,0.004 0.3238,-0.19252 0.59961,-0.4353 z m -1.04779,-0.85198 c -0.25384,-0.19035 -0.98323,-0.63843 -1.62088,-0.99573 -1.53878,-0.86225 -2.49834,-1.54428 -2.88392,-2.0498 -0.30752,-0.40319 -0.33744,-0.41447 -1.09878,-0.41447 -0.43046,0 -1.51036,-0.13021 -2.39978,-0.28935 -0.88942,-0.15914 -1.9374,-0.28957 -2.32885,-0.28984 l -0.71172,-4.4e-4 -8.7e-4,-0.84054 c -4.4e-4,-0.5498 -0.12541,-1.33973 -0.36068,-2.28371 -0.40421,-1.62173 -0.44532,-2.33797 -0.17321,-3.01803 0.30564,-0.76388 0.61099,-0.57805 0.85748,0.52186 0.1822,0.813 0.46948,1.13196 1.50454,1.67046 0.84614,0.44021 0.92956,0.51463 0.92956,0.82927 0,0.19012 0.0809,0.53963 0.17978,0.7767 0.62514,1.49881 2.45531,2.01783 5.06432,1.43618 0.62059,-0.13835 1.31186,-0.25155 1.53615,-0.25155 h 0.4078 v 0.90472 c 0,0.74176 0.0543,1.01361 0.30121,1.50918 0.35982,0.72208 0.57437,0.856 1.29686,0.80952 l 0.54675,-0.0352 0.14061,-0.92749 c 0.24669,-1.62729 0.56227,-2.15855 1.51989,-2.55873 0.21185,-0.0885 1.26555,-0.34594 2.34154,-0.57202 2.7866,-0.58551 3.98795,-1.0739 4.91634,-1.99869 0.24047,-0.23952 0.5345,-0.62526 0.65341,-0.85719 0.25885,-0.50489 0.49006,-1.83967 0.38865,-2.24373 -0.0484,-0.19295 -0.0203,-0.304 0.0847,-0.3346 0.0865,-0.0252 0.37981,-0.10629 0.65187,-0.18022 1.13604,-0.30868 1.87899,-1.44672 1.88091,-2.88116 4.4e-4,-0.46434 -0.0706,-1.01593 -0.15827,-1.22575 -0.27195,-0.65089 -0.84778,-1.2035 -1.46911,-1.40987 -0.31585,-0.1049 -0.57428,-0.21078 -0.57428,-0.23528 0,-0.16857 1.11441,-1.83081 1.35353,-2.0189 0.33137,-0.26065 1.06017,-0.49516 1.22406,-0.39387 0.0587,0.0363 0.59324,0.80385 1.18786,1.70571 0.59462,0.90187 1.24276,1.79299 1.44031,1.98027 0.19755,0.18729 0.35918,0.38768 0.35918,0.44532 0,0.0576 -0.16955,0.30387 -0.37679,0.54717 -0.40557,0.47615 -0.7557,1.05083 -1.70288,2.79496 -0.33262,0.6125 -0.82732,1.36898 -1.09932,1.68108 -0.47796,0.54842 -0.49695,0.6005 -0.56651,1.55291 -0.0396,0.542 -0.22814,1.60164 -0.41902,2.35475 -0.19089,0.75311 -0.38213,1.67915 -0.42497,2.05786 l -0.0779,0.68858 h -0.75363 c -0.41647,0 -1.35637,0.14214 -2.10086,0.31771 -1.10924,0.26159 -1.57827,0.31358 -2.65513,0.29435 l -1.3079,-0.0234 -0.53354,0.68705 c -0.47946,0.61741 -0.68768,0.76647 -2.05425,1.47061 -0.83639,0.43096 -1.7304,0.97613 -1.98668,1.2115 l -0.46597,0.42793 z m 0.0968,-2.42355 c -0.44676,-0.16913 -0.53733,-0.51638 -0.45322,-1.73764 0.0671,-0.97387 0.0459,-1.20338 -0.15875,-1.72265 -0.30908,-0.78414 -0.30046,-1.18528 0.0322,-1.49779 0.19529,-0.18345 0.41363,-0.25208 0.80207,-0.25208 0.71594,0 0.90052,0.0872 0.90052,0.42567 0,0.15671 0.10822,0.5365 0.24049,0.84397 l 0.24049,0.55903 -0.28466,0.56385 c -0.15656,0.31012 -0.45119,1.08503 -0.65472,1.72201 -0.20353,0.63699 -0.3793,1.16566 -0.39059,1.17483 -0.0113,0.009 -0.1345,-0.0265 -0.27381,-0.0792 z m -5.19572,-3.05423 c -1.2048,-0.38264 -2.49149,-1.34173 -2.3377,-1.74251 0.0953,-0.24845 0.36924,-0.22976 1.71109,0.11676 1.32698,0.34267 1.55488,0.32075 2.64398,-0.2543 0.87112,-0.45995 1.09433,-0.48233 1.3382,-0.13415 0.41305,0.58972 0.0377,1.57852 -0.74932,1.97393 -0.48372,0.24303 -1.89898,0.2649 -2.60625,0.0403 z m 7.01439,-1.01803 c -0.39878,-0.87869 -0.22416,-1.4802 0.38529,-1.32724 0.34487,0.0866 0.68906,0.81959 0.6377,1.35816 -0.0337,0.35358 -0.0787,0.40026 -0.41687,0.43282 -0.34709,0.0334 -0.39827,-0.006 -0.60612,-0.46374 z m 1.5888,-0.46008 c -0.0355,-0.26485 -0.16733,-0.62051 -0.29291,-0.79036 l -0.22833,-0.30883 1.10137,-0.50521 c 1.74994,-0.80272 2.6755,-1.61538 3.23722,-2.84233 l 0.30166,-0.65892 0.53438,0.0801 c 1.71677,0.25744 2.41771,1.54809 1.57909,2.90758 -0.38396,0.62246 -1.1414,1.14945 -2.25413,1.56833 -0.54503,0.20517 -3.62113,1.03114 -3.8402,1.03114 -0.0404,0 -0.10263,-0.21669 -0.13815,-0.48154 z m -9.23169,-0.5851 c -0.15437,-0.0829 -0.30076,-0.21161 -0.3253,-0.28607 -0.0245,-0.0745 0.34788,-0.32937 0.82762,-0.56647 0.72487,-0.35825 0.95391,-0.42013 1.35569,-0.36624 0.89514,0.12007 1.01327,0.52166 0.30828,1.04801 -0.38154,0.28486 -1.75247,0.39293 -2.16629,0.17077 z m -2.80237,-0.94168 c -0.60752,-0.32017 -1.26424,-1.14583 -1.62263,-2.04007 -0.19734,-0.49241 -0.2717,-0.96042 -0.31116,-1.95851 l -0.0519,-1.31148 0.69565,0.0787 c 0.88887,0.10056 1.73331,-0.16387 2.37523,-0.74381 0.41663,-0.3764 0.53722,-0.4216 1.19867,-0.44928 l 0.73543,-0.0308 -0.0841,0.37689 c -0.0462,0.20729 -0.0833,0.92468 -0.0824,1.59422 0.002,1.34815 0.17556,2.02883 0.74839,2.9321 l 0.33679,0.53106 -0.84016,0.52366 c -0.46208,0.288 -0.98392,0.5783 -1.15962,0.6451 -0.54833,0.20848 -1.38294,0.14483 -1.93823,-0.14781 z m 6.90896,-0.13598 c -0.6016,-0.1641 -1.68108,-0.61234 -1.68108,-0.69805 0,-0.0269 0.40372,-0.23556 0.89716,-0.46354 1.89182,-0.87408 3.27027,-1.94743 3.80834,-2.96542 0.11484,-0.21726 0.318,-0.70694 0.45146,-1.08817 0.23121,-0.66038 0.26439,-0.69686 0.70212,-0.77189 0.2527,-0.0433 0.87682,-0.24812 1.38694,-0.45512 0.7426,-0.30134 1.10082,-0.37858 1.79701,-0.38747 l 0.86952,-0.0111 0.23187,0.46374 c 0.17035,0.3407 0.23167,0.69446 0.23111,1.33327 -8.7e-4,1.18978 -0.37223,1.97302 -1.42528,3.00745 -0.92541,0.90903 -2.4788,1.73459 -3.81397,2.02696 -1.00885,0.22091 -2.66319,0.22538 -3.4552,0.009 z m -2.2875,-1.57368 c -0.11035,-0.0643 -0.33197,-0.34103 -0.4925,-0.61494 -0.92805,-1.58359 -0.83278,-3.46658 0.26747,-5.28617 0.24823,-0.41054 0.49773,-0.75845 0.55443,-0.77316 0.0567,-0.0147 0.26095,0.19038 0.45387,0.45573 0.71247,0.97997 2.17598,1.76599 3.736,2.00652 0.40156,0.0619 0.49252,0.12149 0.49159,0.32201 -0.002,0.3414 -0.47862,1.32967 -0.85974,1.78105 -0.60815,0.72027 -3.13479,2.23429 -3.71861,2.22826 -0.12753,-0.001 -0.32215,-0.055 -0.43251,-0.1193 z m -8.14676,-1.23192 c -0.72531,-0.38929 -1.16401,-0.82336 -2.14459,-2.1219 -0.55606,-0.73638 -1.200968,-1.50564 -1.433118,-1.70947 -0.23215,-0.20383 -0.422094,-0.38722 -0.422094,-0.40754 0,-0.0203 0.252416,-0.30578 0.560919,-0.63438 0.308508,-0.3286 0.957323,-1.18745 1.441813,-1.90855 0.99407,-1.47952 1.6581,-2.29654 1.8665,-2.29654 0.0777,0 0.29533,0.26868 0.4837,0.59706 0.18837,0.32838 0.44682,0.65445 0.57435,0.7246 0.12753,0.0701 0.25223,0.13921 0.27712,0.15346 0.0249,0.0142 -0.14173,0.23288 -0.37025,0.48582 -1.00246,1.10961 -1.01915,3.19217 -0.0329,4.10619 l 0.29064,0.26936 -0.23602,0.47704 c -0.16476,0.33304 -0.24758,0.76671 -0.27435,1.43661 -0.0211,0.52776 -0.0823,0.97203 -0.13612,0.98724 -0.0538,0.0152 -0.2543,-0.0563 -0.44559,-0.159 z m 21.29785,-1.03079 c -0.73989,-0.3687 -1.06698,-0.801 -1.06698,-1.41017 0,-0.81094 0.51486,-1.01603 1.67051,-0.66545 0.33144,0.10054 1.03353,0.17339 1.68108,0.17442 1.3828,0.002 1.49029,0.0572 1.30699,0.66904 -0.30389,1.0143 -1.06572,1.53198 -2.25451,1.53198 -0.5586,0 -0.88011,-0.0721 -1.33709,-0.29982 z m -19.19448,-1.78669 c -0.78095,-0.24256 -1.23386,-1.02965 -1.23386,-2.14427 0,-0.93157 0.18264,-1.39699 0.74036,-1.88667 0.3553,-0.31197 0.52117,-0.37498 0.98697,-0.37498 0.55265,0 0.56227,0.006 0.74328,0.49273 0.10086,0.271 0.20236,0.64924 0.22555,0.84054 0.0372,0.30657 0.0537,0.32031 0.13983,0.11593 0.29003,-0.68861 0.92457,-0.88038 1.06477,-0.32181 0.12645,0.50385 -0.14163,1.74546 -0.5031,2.33014 -0.49939,0.80774 -1.3775,1.19261 -2.1638,0.94839 z m 20.33029,-0.90458 c -0.33411,-0.17072 -0.63636,-0.24472 -0.84054,-0.20578 -0.49629,0.0946 -0.39738,-0.2038 0.23187,-0.6996 0.30289,-0.23865 0.64506,-0.53864 0.76039,-0.66665 0.20916,-0.23217 0.21127,-0.2319 0.84889,0.10732 0.6243,0.33213 1.43405,1.08599 1.43405,1.33506 0,0.0772 -0.12733,0.0969 -0.33378,0.0515 -0.2009,-0.0441 -0.58166,0.01 -0.95647,0.13571 -0.61994,0.20809 -0.62501,0.20783 -1.14441,-0.0576 z m -11.04523,-0.30384 c -0.88607,-0.36437 -1.42651,-0.79122 -1.71315,-1.35309 l -0.23512,-0.46088 0.35474,-0.29849 c 1.26551,-1.06486 0.85638,-3.172 -0.61585,-3.17184 l -0.48384,5e-5 -0.006,-1.07246 c -0.003,-0.58986 -0.05,-1.73148 -0.10393,-2.53696 -0.0925,-1.38177 -0.0836,-1.49433 0.1578,-1.99293 0.48952,-1.01122 1.51873,-1.23333 3.30984,-0.71429 l 1.00706,0.29183 0.75717,-0.23386 c 1.34456,-0.41529 2.67566,-0.27424 3.22537,0.34179 0.21663,0.24276 0.23187,0.42375 0.23187,2.75305 v 2.49321 l -0.58927,0.22019 c -0.7732,0.28892 -1.10591,0.65458 -1.16799,1.28364 -0.0596,0.60426 0.12181,0.98394 0.63573,1.33028 0.45928,0.3095 1.15664,0.45747 2.878,0.61062 1.52807,0.13597 2.20315,0.29163 2.57134,0.59291 l 0.27003,0.22096 -0.73387,0.72757 c -0.40363,0.40017 -0.79023,0.82959 -0.8591,0.95429 -0.11944,0.21623 -0.1489,0.20756 -0.63755,-0.18757 -0.73351,-0.59312 -0.93996,-0.6768 -1.66974,-0.6768 -0.47496,0 -1.11498,0.15671 -2.36745,0.57968 -1.49347,0.50436 -1.83547,0.57933 -2.63189,0.57693 -0.69342,-0.002 -1.07756,-0.0694 -1.5843,-0.27783 z m 0.12626,-8.39923 c 0.0958,-0.0608 0.13913,-0.26573 0.11594,-0.54892 -0.0337,-0.41194 -0.0691,-0.45506 -0.39926,-0.48719 -0.2199,-0.0214 -0.43631,0.0388 -0.5507,0.15321 -0.22239,0.22238 -0.25122,0.82285 -0.0435,0.90665 0.23339,0.0942 0.71199,0.0812 0.87754,-0.0238 z m 4.05554,-0.0386 c 0.14999,-0.14999 0.18214,-0.54136 0.0687,-0.83685 -0.10496,-0.27354 -0.81677,-0.24352 -0.96897,0.0408 -0.15966,0.29832 -0.15181,0.62507 0.0191,0.79599 0.17935,0.17934 0.70177,0.17934 0.88112,0 z m -9.97631,8.18835 c -0.38661,-0.20974 -0.40532,-0.49337 -0.0773,-1.17108 0.26792,-0.55344 1.18644,-1.42914 1.49902,-1.42914 0.11043,0 0.42218,0.24018 0.69276,0.53373 l 0.49197,0.53373 -0.68009,0.69635 c -0.59297,0.60713 -1.22406,1.02901 -1.51691,1.01402 -0.0499,-0.003 -0.23415,-0.0825 -0.4095,-0.17761 z m 16.39155,-2.37113 c -0.55592,-0.36525 -1.79377,-0.69284 -2.61803,-0.69284 -0.48771,0 -0.67604,-0.12657 -0.42196,-0.2836 0.0582,-0.036 0.14108,-0.27394 0.18414,-0.52879 0.10998,-0.65098 -0.26818,-1.41455 -0.8334,-1.68276 l -0.41722,-0.19799 0.0713,-2.50831 c 0.0848,-2.98334 0.13006,-3.23582 0.63304,-3.52958 0.6259,-0.36554 1.53651,-0.37262 3.56034,-0.0277 1.00988,0.17212 2.07519,0.29595 2.36736,0.27518 0.42638,-0.0303 0.52239,-0.004 0.48654,0.13613 -0.14837,0.57778 -0.005,2.00607 0.31341,3.13027 0.4721,1.66495 0.53051,2.10881 0.36713,2.78987 -0.11816,0.49255 -0.2039,0.61335 -0.56667,0.79842 -0.4877,0.24881 -1.11329,0.90025 -1.86716,1.94429 -0.28643,0.39667 -0.57294,0.71869 -0.63671,0.71559 -0.0638,-0.003 -0.3437,-0.15529 -0.62209,-0.3382 z m -13.7518,-0.1465 c -0.83699,-0.47404 -0.90072,-1.06663 -0.16844,-1.56611 0.83512,-0.56963 2.00455,-0.0862 1.79652,0.74261 -0.0852,0.3395 -0.79646,1.09007 -1.02987,1.08681 -0.0752,-8.8e-4 -0.34436,-0.11954 -0.59821,-0.26331 z m -3.15684,-0.27203 c -0.38649,-0.38878 -0.71184,-0.52698 -2.52865,-1.07407 -1.37105,-0.41286 -2.01239,-0.88094 -2.32363,-1.69591 -0.26588,-0.6962 -0.16674,-1.99812 0.24697,-3.24317 0.1695,-0.51012 0.34143,-1.33681 0.38207,-1.83708 l 0.0739,-0.90959 0.92749,-0.0425 c 0.51012,-0.0233 1.52746,-0.14845 2.26076,-0.27799 1.49181,-0.26352 2.52666,-0.29184 3.12785,-0.0856 0.36402,0.12489 0.41733,0.20054 0.54684,0.77603 0.45452,2.01957 0.43157,5.26765 -0.0437,6.18229 -0.11599,0.22322 -0.6829,0.89299 -1.2598,1.48838 l -1.04892,1.08252 z m 11.79381,-0.53654 c -0.36872,-0.19015 -0.54617,-0.67753 -0.4005,-1.10002 0.13627,-0.39521 0.86149,-0.77904 1.27557,-0.67511 0.3638,0.0913 0.69101,0.73576 0.58601,1.15414 -0.13448,0.53581 -0.95226,0.88339 -1.46108,0.62099 z m -4.43502,-8.75087 c -0.45727,-0.23727 -0.70962,-0.28412 -1.50717,-0.27984 -0.85038,0.005 -1.71359,0.16079 -2.32019,0.41992 -0.52272,0.22331 0.005,-0.95491 0.71432,-1.59613 0.25865,-0.23367 1.00587,-0.69337 1.66049,-1.02156 0.65463,-0.3282 1.40831,-0.74647 1.67486,-0.92949 0.26655,-0.18303 0.51562,-0.33277 0.55349,-0.33277 0.0379,0 0.32629,0.17708 0.64093,0.39351 0.31464,0.21643 1.02093,0.61077 1.56953,0.87631 1.54254,0.74662 2.25839,1.49989 2.25839,2.3764 0,0.50308 -0.1488,0.52313 -0.90289,0.12169 -0.41575,-0.22131 -0.71801,-0.28984 -1.27853,-0.28984 -0.47547,0 -1.03824,0.10211 -1.59749,0.28984 -0.47488,0.15942 -0.87537,0.28244 -0.88996,0.27339 -0.0146,-0.009 -0.2737,-0.1447 -0.57578,-0.30143 z m 1.52628,-0.91508 c 0.37029,-0.47075 0.30733,-0.82601 -0.23835,-1.34509 l -0.47864,-0.45532 -0.50682,0.4974 c -0.57197,0.56133 -0.65825,0.99332 -0.27495,1.37661 0.36203,0.36203 1.18799,0.32147 1.49876,-0.0736 z"
           id="path274" /></g><g
         id="g298"><g
           id="g284"><path
             id="path278"
             style="fill:#fbf1c7;stroke-width:0.0630401"
             d="m 95.731624,161.49867 c -0.02975,-7e-5 -0.05922,2.1e-4 -0.08888,5.2e-4 -0.431404,0.004 -0.85045,0.0485 -1.190625,0.13849 -1.106463,0.29288 -1.69162,0.9874 -1.988509,2.35954 -0.178691,0.82586 -0.191324,2.9031 -0.02274,3.75275 0.31823,1.60387 1.018641,2.32922 2.470134,2.55798 0.206791,0.0329 0.716683,0.0461 1.132747,0.0305 1.014469,-0.038 1.669321,-0.18469 2.537313,-0.56844 l 0.330729,-0.14625 v -1.77766 -1.77716 l -0.387573,0.0403 c -0.213118,0.0223 -0.794255,0.0403 -1.291911,0.0403 -0.762267,0 -0.904854,0.0149 -0.904854,0.0946 0,0.0658 0.0661,0.0946 0.217557,0.0946 0.649134,0 0.739237,0.23933 0.776697,2.05724 l 0.02894,1.39527 -0.370003,0.14107 c -0.242059,0.0922 -0.569236,0.15192 -0.947229,0.17312 -0.508592,0.0285 -0.612395,0.0158 -0.868164,-0.108 -0.292287,-0.1415 -0.567671,-0.46949 -0.716752,-0.85318 -0.271,-0.69748 -0.426811,-2.37534 -0.363803,-3.92328 0.08726,-2.14366 0.384689,-3.05853 1.096574,-3.37343 0.239275,-0.1058 0.375617,-0.12126 0.826823,-0.0941 0.713724,0.043 1.106248,0.1894 1.753382,0.65371 0.136933,0.0982 0.144617,0.0942 0.233577,-0.1111 0.0854,-0.19713 0.08281,-0.22036 -0.03411,-0.31936 -0.349016,-0.29569 -1.306946,-0.47586 -2.229322,-0.47801 z m 30.372826,0.11214 v 4.31808 l 5.1e-4,4.31808 h 0.77877 0.77876 l -0.0114,-2.09599 c -0.009,-1.75237 0.006,-2.16611 0.092,-2.52233 0.25785,-1.06572 0.81803,-1.68569 1.52342,-1.68569 0.39493,0 0.62403,0.13407 0.77721,0.45527 0.21445,0.44964 0.26597,1.14701 0.26097,3.54707 l -0.005,2.27015 0.77928,0.0176 0.77928,0.0176 -0.0233,-2.50734 c -0.0212,-2.27743 -0.0352,-2.54734 -0.14935,-2.93832 -0.23816,-0.81563 -0.83751,-1.20186 -1.85725,-1.19786 -0.99375,0.004 -1.60527,0.35122 -1.98747,1.12758 -0.11005,0.22354 -0.20536,0.40617 -0.21136,0.40617 -0.006,0 0.002,-0.79393 0.017,-1.76475 l 0.0279,-1.76526 h -0.78497 z m -23.52673,1.9792 c -0.174,0.002 -0.35338,0.0135 -0.53795,0.0341 -0.73718,0.0822 -1.65128,0.37492 -1.76992,0.56689 -0.0283,0.0458 0.21489,0.65044 0.33073,0.82217 0.011,0.0163 0.0957,-0.0688 0.1881,-0.18913 0.45452,-0.59194 1.01301,-0.93786 1.60094,-0.99116 0.89233,-0.0809 1.37325,0.31199 1.47846,1.20717 0.0823,0.70007 -0.11336,0.86257 -1.51722,1.26348 -1.79462,0.51251 -2.421424,1.07285 -2.481504,2.21744 -0.03238,0.6169 0.04756,0.89541 0.353464,1.23403 0.27075,0.29968 0.50028,0.42778 0.9586,0.53485 0.41379,0.0967 1.16346,0.0635 1.61282,-0.0713 0.39822,-0.11949 0.79326,-0.38048 0.99942,-0.65991 l 0.1571,-0.2129 0.0677,0.18293 c 0.0372,0.10057 0.11316,0.30327 0.16846,0.45062 l 0.10025,0.2682 h 0.69247 c 0.68836,0 0.69189,-0.001 0.65009,-0.14211 -0.16797,-0.56641 -0.22024,-1.19438 -0.22324,-2.6634 -0.003,-1.72397 -0.0559,-2.22668 -0.28216,-2.67323 -0.3892,-0.76806 -1.32864,-1.1944 -2.54661,-1.17874 z m 20.1135,0.002 c -0.76638,0.002 -1.52171,0.21522 -1.89704,0.56018 -0.45378,0.41705 -0.58741,1.31654 -0.28577,1.92184 0.26315,0.52809 0.69758,0.85782 2.34559,1.78129 0.84995,0.47627 1.17684,0.74278 1.27434,1.03818 0.21989,0.66627 -0.51611,1.22835 -1.60817,1.22835 -0.69925,0 -1.23957,-0.19332 -1.79524,-0.64234 -0.12059,-0.0975 -0.23733,-0.17725 -0.25993,-0.17725 -0.0696,0 -0.19705,0.36663 -0.15245,0.43873 0.1078,0.17443 0.91319,0.49199 1.44539,0.56999 1.19823,0.17569 2.21971,-0.0899 2.80397,-0.72915 0.68973,-0.75467 0.63606,-1.90844 -0.12454,-2.66909 -0.36047,-0.36048 -0.71257,-0.58218 -1.80196,-1.13378 -1.02896,-0.52101 -1.28106,-0.74603 -1.28106,-1.14205 0,-0.84244 1.42628,-1.11067 2.49235,-0.4687 0.19778,0.11914 0.36959,0.21704 0.38189,0.21704 0.025,0 0.21446,-0.35576 0.21446,-0.40256 0,-0.0774 -0.73655,-0.29219 -1.22421,-0.35709 -0.17355,-0.0231 -0.35076,-0.034 -0.52762,-0.0336 z m 12.96768,0.004 c -0.17976,4e-5 -0.35741,0.009 -0.52555,0.0284 -0.60554,0.069 -1.46396,0.32506 -1.68155,0.50127 l -0.13436,0.10852 0.20361,0.40359 c 0.19089,0.3781 0.20897,0.3954 0.29197,0.28009 0.23462,-0.32606 0.70825,-0.73962 1.02578,-0.89556 0.29513,-0.14497 0.43443,-0.1726 0.85679,-0.1726 0.62365,0 0.89732,0.14172 1.1064,0.57361 0.1633,0.33718 0.23509,1.01348 0.12867,1.21233 -0.10532,0.19679 -0.56334,0.40746 -1.39268,0.64027 -1.85542,0.52085 -2.51217,1.09662 -2.57297,2.25516 -0.0205,0.39005 -4.5e-4,0.59247 0.0786,0.79944 0.18819,0.49277 0.72032,0.86849 1.42265,1.00407 0.3129,0.0604 1.20149,-0.0252 1.52136,-0.14676 0.42046,-0.15977 0.77778,-0.41078 0.93224,-0.65474 l 0.12402,-0.19534 0.0692,0.18707 c 0.0382,0.10299 0.11471,0.30791 0.17001,0.45527 l 0.10026,0.2682 h 0.68523 c 0.37667,0 0.68471,-0.0132 0.68471,-0.0289 0,-0.0156 -0.0467,-0.19272 -0.10336,-0.39377 -0.0806,-0.28555 -0.11267,-0.8139 -0.14727,-2.41433 -0.0526,-2.42909 -0.0732,-2.52971 -0.63046,-3.09697 -0.25049,-0.25499 -0.44953,-0.39159 -0.709,-0.48679 -0.40356,-0.14825 -0.96502,-0.23161 -1.5043,-0.23151 z m -18.84381,0.007 c -1.71811,0.007 -2.49887,0.58069 -2.77967,2.04277 -0.12837,0.66828 -0.0951,2.26903 0.0589,2.84737 0.30488,1.14521 0.83323,1.63466 1.96422,1.81797 0.46769,0.0759 1.58688,0.0249 2.03347,-0.0925 0.1996,-0.0525 0.53353,-0.18153 0.74207,-0.2868 0.35413,-0.17878 0.37454,-0.20076 0.30644,-0.33176 -0.0401,-0.0771 -0.0814,-0.15038 -0.092,-0.16278 -0.0106,-0.0124 -0.18411,0.077 -0.38551,0.19843 -0.51321,0.30957 -0.91241,0.43183 -1.53272,0.46923 -0.83169,0.0502 -1.1675,-0.16205 -1.4087,-0.88936 -0.12633,-0.38087 -0.24641,-1.50875 -0.21911,-2.05672 l 0.0207,-0.40979 2.04225,-0.0165 2.04226,-0.0165 -0.0403,-0.5824 c -0.12997,-1.87714 -0.84876,-2.53859 -2.75229,-2.53059 z m -6.1159,0.008 c -1.02578,-0.007 -1.69038,0.36699 -2.04122,1.14876 -0.0941,0.20978 -0.18387,0.38137 -0.19947,0.38137 -0.0155,0 -0.009,-0.32629 0.0134,-0.72502 l 0.0413,-0.7245 h -0.79788 -0.79737 v 3.27784 3.27783 h 0.78135 0.78083 l -0.009,-2.06447 c -0.008,-1.79845 0.005,-2.12138 0.10386,-2.50579 0.29447,-1.14998 0.80664,-1.73323 1.52084,-1.73323 0.38331,0 0.59245,0.10747 0.72812,0.37466 0.25521,0.50267 0.28577,0.87319 0.28577,3.45457 v 2.47426 l 0.78807,5.2e-4 h 0.78807 l -0.016,-2.38022 c -0.0168,-2.54015 -0.0549,-2.9549 -0.31523,-3.43596 -0.30701,-0.56721 -0.80689,-0.81462 -1.65571,-0.82062 z m 6.1836,0.21032 c 0.72513,0.007 1.09783,0.49223 1.2516,1.59783 0.10735,0.77193 0.0935,0.96124 -0.0739,1.00614 -0.078,0.0209 -0.69205,0.0383 -1.36425,0.0388 l -1.22215,0.001 0.0439,-0.55138 c 0.11237,-1.41171 0.43216,-2.00096 1.12862,-2.07946 0.0827,-0.009 0.16114,-0.0137 0.23616,-0.0129 z m 20.10523,2.19883 -5.2e-4,1.34152 c -2e-4,0.78805 -0.0292,1.44518 -0.0703,1.59319 -0.0913,0.32889 -0.51444,0.75257 -0.84336,0.84387 -0.60482,0.16792 -1.16582,0.006 -1.42368,-0.41031 -0.12571,-0.20315 -0.15025,-0.32286 -0.14625,-0.71675 0.009,-0.88936 0.48512,-1.52909 1.56993,-2.10788 0.31205,-0.16648 0.64574,-0.35693 0.74104,-0.42323 z m -33.12563,0.0667 c 0.0612,0 0.0266,2.62573 -0.0377,2.85719 -0.0948,0.34135 -0.44785,0.70653 -0.79788,0.82579 -0.40589,0.13833 -0.7607,0.12448 -1.08986,-0.0424 -0.40426,-0.20491 -0.53572,-0.46665 -0.53072,-1.05575 0.008,-0.93146 0.45409,-1.5016 1.71566,-2.19418 0.3911,-0.2147 0.72422,-0.39068 0.74052,-0.39068 z" /><path
             id="path280"
             style="fill:#fb4934;fill-rule:evenodd;stroke:none;stroke-width:0.2;stroke-linecap:round"
             d="m 95.790535,159.7825 c -0.374096,0 -0.532194,0.43399 -0.300756,0.82578 0.140852,0.2385 0.469755,0.25854 0.614432,0.0377 0.26977,-0.41172 0.105728,-0.86351 -0.313676,-0.86351 z m 0.946196,0.63045 c -0.139797,0 -0.419225,0.15181 -0.554488,0.30127 -0.131372,0.14517 -0.09228,0.42058 0.07338,0.51728 0.05681,0.0331 0.211019,0.061 0.342615,0.062 0.272846,0.002 0.548287,-0.2186 0.548287,-0.43925 0,-0.15528 -0.265522,-0.44131 -0.409794,-0.44131 z m -1.887223,0.001 c -0.129012,0.01 -0.238024,0.095 -0.320911,0.25528 -0.106012,0.20501 -0.04439,0.44844 0.14056,0.55604 v 5.2e-4 c 0.157259,0.0912 0.540974,0.0859 0.665592,-0.009 0.05674,-0.0434 0.120531,-0.15215 0.142111,-0.24185 0.03208,-0.13336 -0.0019,-0.1992 -0.187586,-0.36225 -0.161727,-0.14199 -0.310754,-0.20809 -0.439766,-0.19844 z m 0.976684,0.50333 c -0.150893,0 -0.267304,0.14714 -0.218074,0.27543 v 5.2e-4 c 0.04317,0.1125 0.309887,0.1402 0.372587,0.0388 0.06695,-0.10832 -0.03438,-0.31471 -0.154513,-0.31471 z" /><path
             id="path282"
             style="fill:#fb4934;fill-rule:evenodd;stroke:none;stroke-width:0.269002;stroke-linecap:round"
             d="m 95.767798,170.59527 c -0.02321,0.007 -0.04058,0.0365 -0.06615,0.0842 -0.03852,0.072 -0.232707,0.22569 -0.431498,0.34159 -0.290165,0.16918 -0.365416,0.24686 -0.382406,0.39325 -0.014,0.12053 0.01664,0.20977 0.09095,0.26407 0.249909,0.18274 0.585936,-0.10872 0.734839,-0.63769 l 0.09043,-0.32039 0.04806,0.22066 c 0.139905,0.64474 0.645068,1.02562 0.847494,0.63872 0.08308,-0.1588 -0.0292,-0.36957 -0.258899,-0.48524 -0.114473,-0.0576 -0.31147,-0.20368 -0.438216,-0.32505 -0.140245,-0.13429 -0.195927,-0.18568 -0.234611,-0.17415 z m 0.06976,1.07125 c -0.04191,-0.005 -0.0878,0.002 -0.133325,0.0269 -0.1503,0.0804 -0.170673,0.19364 -0.05581,0.3085 0.09983,0.0998 0.236882,0.0712 0.324012,-0.0672 0.07877,-0.12511 -0.0091,-0.25308 -0.134877,-0.2682 z" /></g><g
           id="g296"
           style="fill:#a89984"><text
             xml:space="preserve"
             style="font-size:3.50678px;font-family:'sweet purple';-inkscape-font-specification:'sweet purple';text-align:end;text-anchor:end;fill:#a89984;fill-rule:evenodd;stroke:#cc241d;stroke-width:0.152931;stroke-linecap:round"
             x="92.349724"
             y="177.76279"
             id="text292"><tspan
               sodipodi:role="line"
               id="tspan288"
               style="font-style:normal;font-variant:normal;font-weight:normal;font-stretch:normal;font-family:ser;-inkscape-font-specification:ser;text-align:start;text-anchor:start;fill:#a89984;stroke:none;stroke-width:0.152931"
               x="92.349724"
               y="177.76279">A            <tspan
   style="font-size:1.41111px;fill:#a89984"
   id="tspan286"> </tspan>stylesheet for Lecture Notes, </tspan><tspan
               sodipodi:role="line"
               style="font-style:normal;font-variant:normal;font-weight:normal;font-stretch:normal;font-family:ser;-inkscape-font-specification:ser;text-align:start;text-anchor:start;fill:#a89984;stroke:none;stroke-width:0.152931"
               x="92.349724"
               y="182.24521"
               id="tspan290">Labs &amp; Tutorials</tspan></text><path
             style="fill:#a89984;fill-opacity:1;stroke-width:0.00394263"
             d="m 100.3053,178.55967 v -0.059 l 0.0621,-4e-5 c 0.0341,-1e-5 0.0907,-0.002 0.12574,-0.003 0.12154,-0.007 0.16416,-0.0235 0.1862,-0.0705 l 0.0104,-0.0222 7.6e-4,-1.0507 c 7.2e-4,-0.72376 -2e-4,-1.05931 -0.003,-1.07832 -0.006,-0.0401 -0.0193,-0.0599 -0.0514,-0.0758 -0.0406,-0.0204 -0.0792,-0.0255 -0.21374,-0.0276 l -0.11729,-0.002 v -0.0587 -0.0587 h 0.14021 0.1402 l -0.002,-0.0168 c -7.6e-4,-0.01 -0.004,-0.0372 -0.007,-0.0622 -0.02,-0.2132 -0.0482,-0.34915 -0.0896,-0.43171 -0.0212,-0.0424 -0.0408,-0.0689 -0.0735,-0.0993 -0.0574,-0.0536 -0.13795,-0.0847 -0.26454,-0.10195 -0.0605,-0.008 -0.386112,-0.0132 -0.436232,-0.005 -0.0419,0.005 -0.0624,0.0173 -0.0749,0.0427 l -0.0092,0.0188 -7.56e-4,1.06253 c -7.01e-4,0.74444 2.04e-4,1.06867 0.0033,1.083 0.01266,0.0612 0.06547,0.0875 0.200903,0.0998 0.0249,0.002 0.11231,0.005 0.194185,0.007 l 0.14883,0.002 v 0.059 0.059 l -0.0305,-0.002 c -0.152005,-0.0131 -1.239239,-0.0131 -1.374015,3e-5 l -0.02654,0.002 v -0.0597 -0.0597 l 0.08969,-5e-5 c 0.04927,-3e-5 0.128348,-0.002 0.17558,-0.003 0.133594,-0.005 0.198766,-0.0181 0.237963,-0.0444 0.0232,-0.0148 0.03501,-0.036 0.04055,-0.0699 0.0058,-0.0357 0.0058,-2.08531 0,-2.12105 -0.0058,-0.0345 -0.01612,-0.0503 -0.04119,-0.0617 -0.03501,-0.0165 -0.07107,-0.0183 -0.259509,-0.0165 -0.181871,0.002 -0.229634,0.005 -0.302303,0.0227 -0.193246,0.0452 -0.271036,0.13862 -0.31687,0.38025 -0.01233,0.0646 -0.02028,0.12613 -0.03134,0.23853 l -0.0087,0.0886 -0.04624,8.2e-4 c -0.02541,6.1e-4 -0.04624,-3.1e-4 -0.04624,-0.002 0,-0.002 0.01513,-0.19028 0.03355,-0.41904 0.0184,-0.22874 0.03347,-0.41901 0.03347,-0.42281 2.4e-5,-0.007 0.05675,-0.007 1.154098,-0.005 l 1.154096,8.1e-4 0.0343,0.40412 c 0.0189,0.22226 0.0345,0.41076 0.0347,0.4189 l 2.2e-4,0.0148 h 0.87311 0.87311 l 0.002,0.0132 c 0.002,0.0115 0.1046,0.83221 0.1046,0.83682 0,0.002 -0.0217,0.002 -0.0482,8.2e-4 l -0.0482,-8.2e-4 -0.0107,-0.0807 c -0.0237,-0.17823 -0.0529,-0.29316 -0.0967,-0.38016 -0.0243,-0.0482 -0.044,-0.0766 -0.0788,-0.11298 -0.0774,-0.0811 -0.18211,-0.12547 -0.35013,-0.14832 -0.0461,-0.007 -0.0886,-0.007 -0.41791,-0.007 -0.33883,-3e-5 -0.36837,5.1e-4 -0.38908,0.007 -0.0277,0.008 -0.0436,0.0215 -0.0531,0.0432 -0.007,0.0164 -0.007,0.0391 -0.008,0.50896 l -7.6e-4,0.49216 0.22778,-0.002 c 0.23588,-0.002 0.25413,-0.003 0.32043,-0.0202 0.0427,-0.0115 0.087,-0.0347 0.11289,-0.0602 0.0525,-0.0518 0.075,-0.12646 0.0787,-0.26125 7.6e-4,-0.038 0.002,-0.0748 0.004,-0.0817 l 0.002,-0.0132 h 0.0472 0.0471 v 0.50072 0.50071 h -0.0471 -0.0471 l -0.002,-0.0168 c -7.6e-4,-0.01 -0.003,-0.0469 -0.004,-0.0839 -0.007,-0.2256 -0.0712,-0.30762 -0.26626,-0.33579 -0.0318,-0.005 -0.0937,-0.007 -0.25756,-0.008 l -0.21586,-0.002 v 0.53018 c 0,0.34244 0.002,0.53768 0.004,0.55132 0.008,0.0442 0.0265,0.061 0.0768,0.0715 0.0345,0.007 0.68952,0.007 0.75896,-2e-4 0.28559,-0.0298 0.43419,-0.11659 0.53126,-0.31037 0.0466,-0.0932 0.088,-0.23486 0.11703,-0.401 l 0.002,-0.0148 -0.084,-8e-4 -0.0839,-8.2e-4 -7.6e-4,-0.0577 -7.5e-4,-0.0577 0.0425,-0.002 c 0.10194,-0.005 0.16526,-0.0169 0.23442,-0.04 0.0994,-0.0331 0.17699,-0.087 0.23774,-0.16526 0.0131,-0.0173 0.15276,-0.22143 0.30956,-0.45346 0.15672,-0.23201 0.29733,-0.43995 0.31231,-0.46207 l 0.0273,-0.0403 -0.35199,-0.53344 c -0.31391,-0.47567 -0.35545,-0.53689 -0.38368,-0.56538 -0.062,-0.0625 -0.12942,-0.0804 -0.30157,-0.0804 h -0.0791 v -0.0594 c 0,-0.0548 5e-4,-0.0592 0.007,-0.0574 0.004,8.2e-4 0.0817,0.003 0.1731,0.007 0.16995,0.005 0.75008,0.002 0.82439,-0.003 l 0.0365,-0.002 v 0.0576 0.0576 l -0.0355,0.002 c -0.0875,0.007 -0.16557,0.0396 -0.19402,0.0819 -0.0132,0.0201 -0.0132,0.0296 -7.1e-4,0.0551 0.01,0.0201 0.49693,0.75242 0.50009,0.75242 0.003,0 0.44913,-0.66043 0.45646,-0.67701 0.0115,-0.0263 0.008,-0.0704 -0.007,-0.10228 -0.0293,-0.06 -0.10162,-0.10212 -0.19037,-0.11035 l -0.0285,-0.002 v -0.0585 -0.0587 l 0.45046,8.2e-4 0.45043,8.1e-4 v 0.0572 0.0572 l -0.051,0.002 c -0.22555,0.0131 -0.37041,0.0773 -0.46941,0.21007 -0.0115,0.0148 -0.13796,0.19919 -0.28147,0.40894 l -0.26089,0.38135 0.32602,0.49392 c 0.1793,0.27164 0.36235,0.54891 0.40679,0.61614 0.0862,0.1304 0.11297,0.1628 0.15441,0.1862 0.0521,0.0294 0.10722,0.0393 0.24149,0.0431 l 0.0937,0.002 v 0.0589 0.059 l -0.0444,-0.002 c -0.17239,-0.01 -0.59517,-0.0132 -0.82303,-0.005 -0.077,0.002 -0.14799,0.005 -0.1577,0.005 l -0.0178,4.1e-4 -7.5e-4,-0.0577 -7.6e-4,-0.0577 0.0115,-0.002 c 0.007,-0.002 0.0194,-0.002 0.0281,-0.002 0.0235,0 0.0916,-0.0148 0.11889,-0.0258 0.0358,-0.0148 0.0643,-0.035 0.0775,-0.0559 0.0131,-0.0217 0.0148,-0.0278 0.003,-0.0488 -0.008,-0.0169 -0.59631,-0.90467 -0.60465,-0.91338 -0.005,-0.003 -0.0572,0.0724 -0.27283,0.39229 -0.14734,0.21856 -0.27335,0.40629 -0.27996,0.41715 -0.0176,0.0288 -0.0225,0.0469 -0.0201,0.0735 0.007,0.0518 0.0416,0.10196 0.0962,0.13057 0.0296,0.0148 0.0834,0.0304 0.11034,0.0304 0.0298,5e-5 0.0289,-0.002 0.0289,0.0635 v 0.0587 h -0.31731 -0.31731 l -0.002,0.008 c -0.003,0.0148 -0.1362,0.83262 -0.1362,0.83784 0,0.003 -0.22511,0.005 -1.08817,0.005 h -1.08815 z m -4.731159,-0.85098 v -0.0585 l 0.105458,-0.002 c 0.05805,-0.002 0.118777,-0.003 0.135025,-0.007 0.0974,-0.0132 0.131489,-0.036 0.141849,-0.0985 0.0033,-0.0181 0.0041,-0.33774 0.0033,-1.08235 -7.58e-4,-1.00804 -0.0016,-1.05748 -0.0082,-1.07494 -0.01463,-0.0375 -0.04649,-0.0572 -0.111164,-0.0691 -0.02052,-0.003 -0.07278,-0.007 -0.14892,-0.008 l -0.117396,-0.002 7.56e-4,-0.0577 c 7.09e-4,-0.0362 0.0025,-0.0574 0.0058,-0.0571 0.05341,0.008 0.84385,0.0131 1.068207,0.005 0.06709,-0.002 0.123826,-0.005 0.126112,-0.005 0.0025,-5e-4 0.0041,0.0189 0.0058,0.0571 l 7.56e-4,0.0577 -0.14499,0.002 c -0.07979,8.2e-4 -0.159181,0.003 -0.176532,0.007 -0.0897,0.0132 -0.129861,0.0326 -0.149068,0.0742 l -0.0086,0.0187 v 1.08028 c 0,0.90696 7.58e-4,1.08329 0.0058,1.09903 0.0082,0.0283 0.02769,0.0439 0.06612,0.0528 0.02825,0.007 0.05162,0.007 0.265525,0.007 0.249193,0 0.275874,-0.002 0.369217,-0.0199 0.06514,-0.0131 0.112118,-0.0289 0.172899,-0.0589 0.153146,-0.0756 0.249517,-0.20305 0.30714,-0.40603 0.0206,-0.0724 0.04282,-0.20925 0.05586,-0.34202 l 0.0025,-0.0266 h 0.04853 0.04853 l -0.0016,0.0131 c -0.0025,0.0165 -0.100212,0.95154 -0.100212,0.95701 0,0.002 -0.322276,0.003 -0.983675,0.003 h -0.98369 z m 0.93834,-0.74776 v -0.0492 h 0.02907 c 0.06188,0 0.138856,-0.0209 0.181547,-0.0493 0.02955,-0.0196 0.05691,-0.0506 0.07474,-0.0844 0.0082,-0.0148 0.154807,-0.3834 0.32594,-0.81763 0.171117,-0.43421 0.314281,-0.79554 0.318132,-0.80296 0.01233,-0.024 0.02483,-0.0299 0.06221,-0.0299 0.03738,0 0.04991,0.005 0.06213,0.0299 0.0041,0.007 0.154199,0.38607 0.33423,0.84144 0.180015,0.45536 0.330377,0.835 0.334131,0.8436 0.02271,0.0521 0.0557,0.0648 0.180293,0.0686 l 0.08278,0.002 7.58e-4,0.0483 7.57e-4,0.0483 h -0.374664 -0.374671 v -0.0487 -0.0487 l 0.05805,-0.002 c 0.08168,-0.003 0.127016,-0.0164 0.146388,-0.0404 0.01718,-0.0219 0.01595,-0.028 -0.02825,-0.13994 -0.02263,-0.0574 -0.06042,-0.15343 -0.08398,-0.21363 l -0.04284,-0.10935 -0.374126,8e-4 -0.374109,8.2e-4 -0.06083,0.15376 c -0.03338,0.0845 -0.06431,0.16428 -0.06864,0.17709 -0.0087,0.0263 -0.01003,0.059 -0.0033,0.082 0.0066,0.0206 0.03297,0.0498 0.05774,0.0633 0.02491,0.0131 0.07434,0.0263 0.101856,0.0263 h 0.021 v 0.0493 0.0493 h -0.29373 -0.293722 z m 1.248646,-0.6515 c -7.56e-4,-0.002 -0.07581,-0.19193 -0.166515,-0.42285 -0.09067,-0.23095 -0.165889,-0.42111 -0.167136,-0.42259 -0.0016,-0.002 -0.309509,0.77431 -0.333772,0.84149 -0.0025,0.007 0.01513,0.007 0.333284,0.007 0.184682,0 0.335036,-0.002 0.334139,-0.003 z"
             id="path294" /></g></g></g></g></svg>
